<svg xmlns="http://www.w3.org/2000/svg" viewBox="0 0 322.29 282.7"><defs><style>.cls-1{fill:#231815;}</style></defs><g id="レイヤー_2" data-name="レイヤー 2"><g id="レイヤー_1-2" data-name="レイヤー 1"><path class="cls-1" d="M317.65,11.18c.07-1,3-6.26,4.15-8.23s.14-3.52-1.2-2.75-10.23,7.57-15.65,12c0,0-16.27,14.76-20.66,15s-21.55-.59-38.08-.12S217.29,30,215,30s-6.26-4-16.64-12.52S181.78,7,179.58,9.15s2.86,11.45,5.07,17.44,7.75,20,8,23.18.19,12.53.72,13.07a4.68,4.68,0,0,1,2,3.87c.21,2.73-7.42,10.36-9.17,10.63s-3-2.3-8.41-4.79-32.74-11.17-60.53-12.43S56.64,64.75,34.75,85,4.81,132,2.6,138.62s.27,21.54-1.83,37S1.35,215,3.37,220.9s-1.26,14-1.46,15.88-2,7.1,8.32,13.19,44.1,18.72,65.91,25.79,58.86,7.42,71.28,6.65,44.07-9,63.12-15,31.92-10.15,37.08-14.55a10.48,10.48,0,0,0,3-11.53c-4.91-5.42-13.2-14.17-18.15-17.37-7.38-4.76-17.59-4.06-23.91-3.55s-10.26,3.24-15,6.83-8.63,4.45-7-.09,10.79-23,14.52-29.15,13.11-13.09,14.28-15.28,4.61-13,4.53-14.37a8.63,8.63,0,0,0-2.19-4.61c-1.25-1.41-8.67-11.61-8.79-13.53s5.89-5.41,7.57-4.57,11.77,22.45,13.21,27.73-1.24,41.21.53,42.63,4.62,1.81,7.13,3,6.25,3.92,11,8.16a33.81,33.81,0,0,1,6.77,9.28,7.18,7.18,0,0,1,.81,0c4.85.17,11.69-2.17,13.11-3.17s4.35-.67,6.1-.67a62.17,62.17,0,0,0,25.3-6.27c10-4.81,11.94-16.12,11.77-19.93a9.21,9.21,0,0,0-2.28-5.76,144.16,144.16,0,0,1-13.27-6.73c-.83-.52-.36-1,.57-1.38-1.71-.36-2.7-1.21-2.74-1.8a5,5,0,0,1,.9-1.59c-2.31,1.4-5.17,3-6.19,2.89a18.77,18.77,0,0,0-6.25,1.05c-1.66.59-4.58.07-5.22-1s.51-5.4-3-10.73-25.87-19.7-32.39-24-23.2-14.88-24.31-16c-1.27-1.23-.82-5.71.68-10.45a27.58,27.58,0,0,0,1.46-8.61c1.14-13.05,12.39-14.89,15-15.14a29.16,29.16,0,0,0,.34-3.73A14.15,14.15,0,0,1,236.53,98l1.25-2.13.35-1.88c1.75-11.08,6.79-12.21,7.58-15.1,1.06-3.89,5-3.83,7.67-1s5.52,14,5.52,18-.71,7.31.4,8.43,4.64,1.29,7.63,1.7,8.82,2.23,11.24,4.15,8.35,7.37,10.85,7.37,11.42.15,13.13,0,3.92-.74,8.89-4.52c2.64-2,4.53-7.5,5.71-12.19V99.24c0-4.7-.57-12.31-.62-13.9a9.35,9.35,0,0,1,1.35-4.21c.58-1.26.44-7.75.2-9.15a7.31,7.31,0,0,0-1.36-3c-.48-.77-.38-3.4-.53-4s-.19-.67-2.17-2-5.42-3.61-5.42-4.25,2.39-1.3,4.62-4.94a11.29,11.29,0,0,0,1.81-7.74c-.22-.84-1.21-1.92-1.34-3.32s-.16-9,1-12.29S317.58,12.24,317.65,11.18Z"/><path class="cls-1" d="M235.13,107.15a19,19,0,0,1-1.89,6.43c-1.17,1.76-1.42,3.32-1.24,3.71s.85.76,2,1,1.21,4.24,1.07,5.26-.66,1.59-1.44,2.91.29,4.2,1.34,6.16a13.47,13.47,0,0,0,5.86,5.24A7.84,7.84,0,0,0,249,137c1.79-1.42,7.57-10.27,9.5-13a5.08,5.08,0,0,0-.15-5.51c-2-2.55-3.18-2-5.91-1.6s-3.06-5.61-2.8-7a28.82,28.82,0,0,0,1.1-4.72c.14-1.94-.82-12.69-3.39-15.7s-5.2-1-6.73,1.55c-.64,1-1.9,3.19-2.85,4.82l-2.09,11.27S235.49,107.11,235.13,107.15Z"/></g></g></svg>